<svg width="9" height="6" viewBox="0 0 9 6" fill="none" xmlns="http://www.w3.org/2000/svg">
<path d="M1.06509 1.07888L1.06509 1.07888C0.947811 1.20459 0.875 1.3442 0.875 1.49597C0.875 1.6484 0.948412 1.78618 1.06701 1.90776L4.02159 4.9368C4.12285 5.0631 4.26318 5.125 4.42857 5.125C4.59396 5.125 4.7343 5.0631 4.83555 4.9368L7.79013 1.90776C7.90873 1.78618 7.98214 1.6484 7.98214 1.49597C7.98214 1.3442 7.90933 1.20459 7.79205 1.07888L7.70065 1.16416L7.79205 1.07888C7.67489 0.953319 7.5387 0.871524 7.38476 0.875111C7.23269 0.878655 7.099 0.964788 6.98361 1.09308L4.42857 3.68434L1.87354 1.09309C1.75815 0.964789 1.62446 0.878655 1.47238 0.875111C1.31844 0.871524 1.18225 0.953319 1.06509 1.07888Z" fill="#EEF0F2" stroke="#EEF0F2" stroke-width="0.25"/>
</svg>
